<?xml version="1.0" encoding="UTF-8"?>
<svg width="128px" height="20px" viewBox="0 0 128 20" version="1.1" xmlns="http://www.w3.org/2000/svg" xmlns:xlink="http://www.w3.org/1999/xlink">
    <title>stars</title>
    <g id="Page-1" stroke="none" stroke-width="1" fill="none" fill-rule="evenodd">
        <g id="Artboard" transform="translate(-686.000000, -263.000000)" fill="#FEEA6F">
            <g id="stars" transform="translate(686.000000, 263.000000)">
                <polygon id="Star" points="10 14.1 4.12214748 18.0901699 6.10066828 11.2669697 0.489434837 6.90983006 7.59008047 6.68303032 10 0 12.4099195 6.68303032 19.5105652 6.90983006 13.8993317 11.2669697 15.8778525 18.0901699"></polygon>
                <polygon id="Star-Copy" points="37 14.1 31.1221475 18.0901699 33.1006683 11.2669697 27.4894348 6.90983006 34.5900805 6.68303032 37 0 39.4099195 6.68303032 46.5105652 6.90983006 40.8993317 11.2669697 42.8778525 18.0901699"></polygon>
                <polygon id="Star-Copy-2" points="64 14.1 58.1221475 18.0901699 60.1006683 11.2669697 54.4894348 6.90983006 61.5900805 6.68303032 64 0 66.4099195 6.68303032 73.5105652 6.90983006 67.8993317 11.2669697 69.8778525 18.0901699"></polygon>
                <polygon id="Star-Copy-3" points="91 14.1 85.1221475 18.0901699 87.1006683 11.2669697 81.4894348 6.90983006 88.5900805 6.68303032 91 0 93.4099195 6.68303032 100.510565 6.90983006 94.8993317 11.2669697 96.8778525 18.0901699"></polygon>
                <polygon id="Star-Copy-4" points="118 14.1 112.122147 18.0901699 114.100668 11.2669697 108.489435 6.90983006 115.59008 6.68303032 118 0 120.40992 6.68303032 127.510565 6.90983006 121.899332 11.2669697 123.877853 18.0901699"></polygon>
            </g>
        </g>
    </g>
</svg>