<svg width="18" height="18" xmlns="http://www.w3.org/2000/svg"><path d="M16.79 0c-.22 0-.44.05-.66.15-1.55.73-2.7.98-3.66.98-2.03 0-3.21-1.12-5.56-1.12-1.18 0-2.64.28-4.66 1.13v-.01a1.12 1.12 0 1 0-2.25 0v16.3c0 .32.25.57.56.57H1.7c.3 0 .56-.25.56-.56V13.5a10.6 10.6 0 0 1 4.51-1.12c2.5 0 4.24 1.12 6.74 1.12a10 10 0 0 0 3.8-.81c.43-.18.7-.58.7-1.01V1.08C18 .42 17.43 0 16.8 0ZM15.75 5a8.9 8.9 0 0 1-2.81.79V8.6c.9-.06 1.81-.25 2.81-.61v2.87a7.24 7.24 0 0 1-2.81.36V8.6l-.47.02a8.3 8.3 0 0 1-2.34-.36v2.36c-.84-.22-1.77-.4-2.82-.46V7.49c-.13.02-.26 0-.4 0-.7 0-1.53.16-2.4.42v2.43c-.74.19-1.49.41-2.26.71V8.81l.87-.36L4.5 7.9V5.04c-.67.18-1.4.42-2.25.77V3.58l.87-.37c.5-.2.95-.36 1.38-.5v2.33a9.55 9.55 0 0 1 2.4-.35l.41.02V2.29c.66.05 1.21.23 1.87.45.3.1.62.2.95.29v2.32a7.2 7.2 0 0 0 2.34.46l.47-.03V3.36c.9-.05 1.81-.25 2.81-.61v2.24ZM7.31 4.7v2.81c.66.06 1.21.23 1.88.45l.94.3V5.35c-.84-.28-1.7-.58-2.82-.64Z" fill="#d2ba16" fill-rule="nonzero"/></svg>