<svg width="23" height="18" xmlns="http://www.w3.org/2000/svg"><path d="M2.25 1.69C2.25.76 3.01 0 3.94 0h9c.93 0 1.68.76 1.68 1.69V9h6.75v3.38a1.12 1.12 0 1 1 0 2.24h-1.12a3.38 3.38 0 0 1-6.75 0H9a3.38 3.38 0 0 1-6.75 0v-4.5h5.06c.31 0 .56-.25.56-.56 0-.3-.25-.56-.56-.56H.56a.56.56 0 0 1 0-1.13h7.88c.3 0 .56-.25.56-.56 0-.3-.25-.56-.56-.56H1.69a.56.56 0 0 1 0-1.13h7.87c.31 0 .56-.25.56-.56 0-.3-.25-.56-.56-.56h-9a.56.56 0 0 1 0-1.13h1.69V1.7ZM5.62 16.3a1.69 1.69 0 1 0 0-3.37 1.69 1.69 0 0 0 0 3.37Zm11.25-3.37a1.69 1.69 0 1 0 0 3.37 1.69 1.69 0 0 0 0-3.37Zm-.46-7.31h-2.35V3.38h2.35c.6 0 1.14.23 1.59.65l2.72 2.72c.42.42.65 1 .65 1.6v1.78h-2.25V8.34l-2.71-2.71Z" fill="#FEEA6F" fill-rule="nonzero"/></svg>