<svg width="280" height="92" xmlns="http://www.w3.org/2000/svg"><g fill-rule="nonzero" fill="none"><path d="m70.37 25.74 3.51-4.31 3.61-4.39 7.2-8.86c.14-.15.26-.29.47-.06.22.22.45.42.7.6.3.27.04.46-.09.65l-5.51 7.75c-15.52 21.8-31.02 43.62-46.51 65.44-.76 1.06-1.5 1.5-2.79 1.43-2.45-.11-4.92-.03-7.38-.03H23c.03-.27.2-.38.32-.52L47.35 54c.3-.31.4-.76.26-1.16-1.49-6.02-4.56-11.18-8.57-15.8a55.2 55.2 0 0 0-9.45-8.6c-.15-.1-.35-.16-.44-.4 1.63-.54 3.32-.87 5.02-1 6.71-.53 12.26 1.94 16.87 6.72a30.52 30.52 0 0 0 7.34 5.79c.45.24.66.17.94-.21.65-.86 1.34-1.68 2.02-2.52l1.75-2.12 7.28-8.96Z" fill="#ED3737"/><path d="m84 8.4-7.17 8.68-3.59 4.3a19.8 19.8 0 0 1-9.8 0 20.9 20.9 0 0 1-9.4-5.52c-1.54-1.52-3.06-3.07-4.85-4.3-.37-.26-.2-.4.01-.62l3.63-3.75c.13-.14.3-.23.37-.5-1.47-.15-2.93-.41-4.39-.44-1.33-.03-2.13-.5-2.66-1.75-.57-1.34-1.37-2.58-2.07-3.86-.23.05-.23.26-.3.4-.73 1.59-1.46 3.18-2.17 4.78a.75.75 0 0 1-.63.5c-1.45.24-2.9.51-4.35.76-.27.04-.55.05-.82.04a28.9 28.9 0 0 0-13.35 3.15c-.55.28-.54.29-.3.82-3.43.57-6.62-.98-8.08-3.63-.2-.37 0-.45.25-.59a44.35 44.35 0 0 1 11.04-4.68A64.55 64.55 0 0 1 44.97.05C58.42.5 71.28 3.58 83.8 8.29l.2.1Z" fill="#197DD8"/><path d="m70 26.03-7.24 8.87L61 37a25.07 25.07 0 0 1-7.47-5.56 24.54 24.54 0 0 0-11.64-7.07c-.3-.08-.44-.28-.6-.5a41.32 41.32 0 0 0-9.49-9.39A23.64 23.64 0 0 0 28 12.33a22.14 22.14 0 0 1 11.14-1c.83.15 1.1.2.93 1.25-.27 1.79-.5 3.57-.74 5.36.25.07.37-.09.5-.17 1.55-.87 3.08-1.74 4.6-2.63.22-.15.51-.17.74-.03 1.7.84 3.42 1.67 5.14 2.48.33.16.54.43.78.67a25.33 25.33 0 0 0 10.85 6.87c2.63.8 5.33 1.02 8.06.9Z" fill="#197DD8"/><path d="M4.77 32C2.26 29.26.27 26.4.02 22.68a7.74 7.74 0 0 1 1.86-5.51 17.3 17.3 0 0 1 5.22-4.13c1.39-.76 2.84-1.42 4.33-1.95.3-.11.61-.12.9-.02a71.52 71.52 0 0 1 16.35 7.52c2.32 1.4 4.56 2.9 6.74 4.5.15.1.3.23.58.44-1.45-.26-2.73-.51-4.03-.73a53.2 53.2 0 0 0-13.3-.77c-3.08.26-6.07.89-8.76 2.47-2.84 1.67-4.69 4.04-5.14 7.5Z" fill="#ED3737"/><path d="m81.86 84 12.29-22.72h-5.7l-5.6 10.78a216.07 216.07 0 0 0-3.33 6.7c-.1-2.25-.25-4.52-.48-6.76L78 61.28h-5.22L75.37 84h6.49Zm18.87-18.72.86-4h-4.8l-.86 4h4.8ZM96.79 84l3.52-16.64h-4.8L91.99 84h4.8Zm12.6.54c2.65 0 5.02-.86 7.87-3.8l-2.79-2.79c-2.04 1.73-2.88 2.5-4.76 2.5-1.86 0-3.01-1.41-3.01-3.43 0-2.97 1.73-6.17 4.73-6.17 1.41 0 2.24.48 3.59 1.98l3.3-2.75a7.7 7.7 0 0 0-6.6-3.3c-6.81 0-9.82 5.9-9.82 10.44 0 4.28 2.97 7.32 7.49 7.32Zm15.98-.12c.93 0 2.3-.13 3.65-.64l-.22-3.84c-.64.19-1.22.28-1.63.28-.87 0-1.48-.12-1.25-1.3l1.7-7.98h3.45l.74-3.58h-3.43l1.03-4.9h-4.77l-1.03 4.9h-2.88l-.73 3.58h2.85l-1.8 8.45c-.67 3.07.61 5.03 4.32 5.03Zm14.23.12c7.07 0 9.8-6.36 9.8-10.24 0-5.05-3.17-7.52-7.5-7.52-6.9 0-9.75 6.24-9.75 10.24 0 5.1 3.13 7.52 7.45 7.52Zm.39-4.06c-2.21 0-3.04-1.44-3.04-3.52 0-2.27 1.37-6.11 4.64-6.11 2.24 0 3 1.4 3 3.49 0 2.24-1.47 6.14-4.6 6.14ZM155.72 84l1.57-7.42c.7-3.4 2.43-4.9 4.44-4.9.7 0 1.38.13 2.18.45l1.7-4.23a6.2 6.2 0 0 0-2.79-.73c-2.24 0-3.49 1.25-4.51 3l.58-2.81h-4.45L150.92 84h4.8Zm11.67 6.27c2.9 0 4.99-1.09 6.81-4.45l10.15-18.46h-5.03l-2.85 5.47c-.99 1.89-2.04 3.97-2.94 5.86l-.6-5.95-.62-5.38h-4.9l2.7 17.22c-1 1.34-1.86 1.82-3.1 1.82-.71 0-1.26-.06-1.86-.16l-1.25 3.49c.86.29 2.01.54 3.49.54Zm33.76-5.73c2.76 0 4.93-.76 6.63-2.68l-.2 2.14h3.88l2.72-12.93h-10.79l-.92 4.35h6.1l-.09.48c-.45 2.08-2.59 4.13-6.24 4.13-3.04 0-4.77-1.7-4.77-4.86 0-4.51 2.63-9.86 8-9.86 2.37 0 3.97.74 6.05 2.85l3.71-3.1a11.4 11.4 0 0 0-9.37-4.32c-10.05 0-13.6 9.08-13.6 14.65 0 5.76 3.84 9.15 8.9 9.15Zm19.6-.54 4.84-22.72h-4.8L215.96 84h4.8Zm10.81.38c2.4 0 4.13-1.02 5.31-2.52l-.44 2.14h4.32l3.55-16.64h-4.39l-.5 2.4c-.65-1.98-2.34-2.88-4.68-2.88-5.57 0-8.93 5.76-8.93 10.98 0 4.06 2.24 6.52 5.76 6.52Zm1.73-4.06c-1.92 0-2.69-1.18-2.69-3.17 0-2.3 1.19-6.17 4.61-6.17 2.02 0 2.72 1.28 2.72 2.75 0 3.13-1.63 6.59-4.64 6.59Zm19.22 4.26c4.1 0 7.58-1.83 7.58-5.86 0-2.3-.92-3.62-5.95-5.09-2.08-.57-2.91-.8-2.91-1.5 0-.9 1-1.38 2.24-1.38 1.89 0 3.42.7 5.12 2.08l2.75-3.04a10.09 10.09 0 0 0-7.52-2.91c-5.18 0-7.2 3.33-7.2 5.73 0 2.43 1.38 3.74 5.47 4.8 1.92.48 3.36.83 3.36 1.76 0 1.05-1.15 1.47-2.75 1.47-1.79 0-3.42-.83-5.37-2.37l-2.79 3.04a11.46 11.46 0 0 0 7.97 3.27Zm17.27 0c4.1 0 7.58-1.83 7.58-5.86 0-2.3-.93-3.62-5.95-5.09-2.08-.57-2.91-.8-2.91-1.5 0-.9.99-1.38 2.24-1.38 1.89 0 3.42.7 5.12 2.08l2.75-3.04a10.09 10.09 0 0 0-7.52-2.91c-5.18 0-7.2 3.33-7.2 5.73 0 2.43 1.38 3.74 5.47 4.8 1.92.48 3.36.83 3.36 1.76 0 1.05-1.15 1.47-2.75 1.47-1.8 0-3.42-.83-5.38-2.37l-2.78 3.04a11.46 11.46 0 0 0 7.97 3.27Z" fill="#E0E0E0"/></g></svg>